<svg id="Capa_1" enable-background="new 0 0 511 511" height="512" viewBox="0 0 511 511" width="512" xmlns="http://www.w3.org/2000/svg"><g><path style="fill:#0c99e9;" d="m56.052 166.55c37.792-43.965 107.037-17.988 112.12 40.45h39.29v-69.04h25.36c21.69 0 39.34-15.65 39.34-34.89 0-19.15-17.65-34.73-39.34-34.73h-25.36v-68.34h-207v207h38.57c1.2-15.62 7.14-28.96 17.02-40.45z"/><path style="fill:#0c99e9;" d="m141.242 341.39c0-36.59 32.69-60.02 66.22-62.53v-40.56h-69.04v-24.05c0-21.33-16.43-39.34-35.88-39.34-21.12 0-33.74 20-33.74 39.34v24.05h-68.34v208.3h207v-38.59c-34.373-2.967-66.22-31.067-66.22-66.62z"/><path style="fill:#0c99e9;" d="m509.662 95.09c-3.653-15.152-19.014-27.49-38.48-27.49h-24.06l-.06-67.6h-208.3v38.58c35.46 2.82 63.4 30.67 63.4 64.49 0 33.91-27.94 61.83-63.4 64.66v39.27h70.34v25.36c0 20.95 17.23 39.34 36.87 39.34 21.28 0 32.75-20.27 32.75-39.34v-25.36h68.34l.06-69.78c24.747 0 31.944 1.105 42.99-4.32 2.857 0 25.066-14.762 19.55-37.81z"/><path style="fill:#0c99e9;" d="m408.512 238.3c-2.65 36-29.16 63.4-62.54 63.4-34.32 0-63.6-28.47-66.61-63.4h-40.6v70.34h-24.05c-20.99 0-43.47 13.16-43.47 32.75 0 20.43 23.78 36.87 43.47 36.87h24.05v68.34l72.12.4c0 23.871-1.411 33.713 5.33 45.51 6.15 11.069 17.083 18.49 29.56 18.49 19.573 0 34.73-18.168 34.73-39.34v-24.76l66.62-.3-.81-208.3z"/></g></svg>